<?xml version="1.0" encoding="utf-8"?>
<!-- Generator: Adobe Illustrator 24.0.2, SVG Export Plug-In . SVG Version: 6.00 Build 0)  -->
<svg version="1.1" id="Слой_1" xmlns="http://www.w3.org/2000/svg" xmlns:xlink="http://www.w3.org/1999/xlink" x="0px" y="0px"
	 viewBox="0 0 41.3 29.6" style="enable-background:new 0 0 41.3 29.6;" xml:space="preserve">
<style type="text/css">
	.st0{fill:#E63A48;}
	.st1{fill:url(#SVGID_1_);}
	.st2{fill:url(#SVGID_2_);}
</style>
<polygon class="st0" points="10.5,18.1 10.5,10.5 30.1,10.5 30.1,18.1 31.7,18.1 31.7,8.8 8.8,8.8 8.8,18.1 "/>
<polygon class="st0" points="30.1,27 30.1,27.6 10.5,27.6 10.5,27 8.8,27 8.8,29.3 31.7,29.3 31.7,27 "/>
<path class="st0" d="M15.6,15.6l-0.9-1.4c1.4-0.9,2.6-2.6,3.6-4.4c-1.4-0.2-3-0.6-4.5-1.6c-1.5-1-2.3-2.3-2.2-3.7
	c0.1-1.1,0.9-2.1,2-2.5c1.3-0.5,2.9,0,4.1,1.2c1,1,1.8,2.1,2.5,3.2C21,5,21.9,3.8,22.9,2.8c1.3-1.1,2.7-1.5,4-1
	c1.1,0.4,1.8,1.4,2,2.5c0.2,1.3-0.5,2.6-1.8,3.5c-1.2,0.9-3,1.5-4.8,1.8c0.9,1.4,2.1,2.9,3.7,4.3l-1.1,1.3c-2.1-1.8-3.4-3.6-4.5-5.4
	c-0.1,0-0.2,0-0.3,0C18.9,12.1,17.6,14.3,15.6,15.6z M14.7,3.5c-0.2,0-0.4,0-0.5,0.1c-0.5,0.2-0.8,0.6-0.9,1.1
	c-0.1,0.7,0.4,1.5,1.4,2.1c1.4,0.9,3,1.3,4.5,1.4c0-0.1,0.1-0.1,0.1-0.2c-0.8-1.3-1.6-2.5-2.7-3.6C15.9,3.8,15.3,3.5,14.7,3.5z
	 M21.2,8c0,0.1,0.1,0.1,0.1,0.2c2-0.2,3.7-0.9,4.9-1.6c0.8-0.6,1.2-1.3,1.1-1.9c-0.1-0.5-0.4-0.9-0.9-1.1c-0.7-0.3-1.6,0-2.3,0.7
	C23,5.1,22.1,6.4,21.2,8z"/>
<g>
	<linearGradient id="SVGID_1_" gradientUnits="userSpaceOnUse" x1="12.8485" y1="20.8638" x2="20.0045" y2="20.8638">
		<stop  offset="0" style="stop-color:#1D3557"/>
		<stop  offset="1" style="stop-color:#1D3557"/>
	</linearGradient>
	<path class="st1" d="M13.4,16.1h6.3v0.4l-5.4,8.7h1.2c1,0,1.8-0.1,2.4-0.2c0.6-0.1,1-0.3,1.3-0.5c0.2-0.2,0.4-0.4,0.4-0.6l0-0.3H20
		l-0.3,1.9h-6.9v-0.4l5.4-8.7h-1.4c-0.6,0-1.2,0.1-1.7,0.2c-0.5,0.1-0.9,0.2-1.1,0.4c-0.3,0.2-0.4,0.4-0.4,0.6l0,0.4h-0.4L13.4,16.1
		z"/>
	<linearGradient id="SVGID_2_" gradientUnits="userSpaceOnUse" x1="20.9329" y1="20.8638" x2="28.089" y2="20.8638">
		<stop  offset="0" style="stop-color:#1D3557"/>
		<stop  offset="1" style="stop-color:#1D3557"/>
	</linearGradient>
	<path class="st2" d="M21.5,16.1h6.3v0.4l-5.4,8.7h1.2c1,0,1.8-0.1,2.4-0.2c0.6-0.1,1-0.3,1.3-0.5c0.2-0.2,0.4-0.4,0.4-0.6l0-0.3
		h0.4l-0.3,1.9h-6.9v-0.4l5.4-8.7H25c-0.6,0-1.2,0.1-1.7,0.2c-0.5,0.1-0.9,0.2-1.1,0.4c-0.3,0.2-0.4,0.4-0.4,0.6l0,0.4h-0.4
		L21.5,16.1z"/>
</g>
</svg>
